<svg xmlns="http://www.w3.org/2000/svg" width="120" height="22" viewBox="0 0 120 22" fill="none"><path fill-rule="evenodd" clip-rule="evenodd" d="M21.3582 21.5554H12.004C10.2375 21.5554 8.83235 21.4542 7.8086 21.2518C6.42353 20.9685 5.13882 20.4422 3.97456 19.6529C2.62963 18.7421 1.62596 17.6087 0.983603 16.2527C0.321177 14.836 0 13.1966 0 11.2941C0 7.44868 1.04382 4.63543 3.17162 2.85438C5.13882 1.17453 8.14985 0.344727 12.1445 0.344727H21.3382V4.59496H12.2649C11.181 4.59496 10.3178 4.71639 9.67544 4.93902C8.27029 5.445 7.34691 6.53792 6.94544 8.23801C6.72463 9.16901 6.60419 10.2619 6.60419 11.4965C6.60419 13.6014 7.00566 15.0789 7.8086 15.9289C8.63161 16.7992 10.1171 17.2444 12.2449 17.2444H21.3181V21.5554H21.3582Z" fill="white"></path><path fill-rule="evenodd" clip-rule="evenodd" d="M48.3568 10.9494C48.3568 18.3165 44.0811 21.9798 35.5097 22C31.1136 22 27.8617 21.0892 25.774 19.2475C23.7065 17.4057 22.6426 14.5722 22.6426 10.7673C22.6426 3.60258 26.9182 0 35.4896 0C41.9935 0 46.0082 2.02392 47.5739 6.07176C48.0958 7.40754 48.3568 9.02668 48.3568 10.9494ZM41.7726 10.9494C41.7726 8.58142 41.2708 6.86109 40.2671 5.78841C39.2635 4.71573 37.6776 4.16927 35.5097 4.16927C33.3819 4.16927 31.8162 4.69549 30.8125 5.76817C29.7687 6.86108 29.2468 8.5207 29.2468 10.7875C29.2468 13.2364 29.7486 15.0175 30.7523 16.1306C31.7158 17.2033 33.3217 17.7295 35.5097 17.7295C37.5773 17.7295 39.143 17.1831 40.1868 16.0902C41.2507 14.977 41.7726 13.2769 41.7726 10.9494Z" fill="white"></path><path fill-rule="evenodd" clip-rule="evenodd" d="M70.8401 4.71622H62.7505V21.5755H56.4474V4.71622H48.418V0.405273H70.8401V4.71622Z" fill="white"></path><path fill-rule="evenodd" clip-rule="evenodd" d="M95.2287 21.5759H88.3234L85.6135 16.678H75.8979L73.1879 21.5759H66.1221L77.8852 0.365234H83.5057L95.2287 21.5759ZM83.1846 12.3266L80.7557 7.89421L78.3268 12.3266H83.1846Z" fill="white"></path><path fill-rule="evenodd" clip-rule="evenodd" d="M120 15.0794C120 19.3903 116.949 21.5559 110.866 21.5559H96.5339V17.1843H110.063C111.127 17.1843 111.91 17.1033 112.432 16.9212C113.275 16.6176 113.677 16.0509 113.677 15.2211C113.677 14.5127 113.436 13.9865 112.974 13.6424C112.533 13.3793 111.669 13.2579 110.425 13.2579H104.242C102.717 13.2579 101.432 13.1364 100.388 12.8733C99.2439 12.59 98.3205 12.2257 97.638 11.7399C96.2328 10.7482 95.5303 9.16955 95.5303 7.00396C95.5303 4.4943 96.4537 2.69301 98.3004 1.64057C99.7658 0.790528 101.894 0.385742 104.664 0.385742H118.876V4.75741L105.487 4.77765C104.182 4.77765 103.259 4.9598 102.676 5.3241C102.155 5.64793 101.894 6.23487 101.894 7.04443C101.894 7.63137 102.094 8.09687 102.516 8.4207C103.038 8.74453 103.76 8.90644 104.704 8.90644H111.609C114.339 8.90644 116.306 9.27074 117.571 9.99936C119.177 10.9506 120 12.6507 120 15.0794Z" fill="white"></path></svg>